<svg width="24" height="24" viewBox="0 0 24 24" fill="none" xmlns="http://www.w3.org/2000/svg">
<path fill-rule="evenodd" clip-rule="evenodd" d="M15.5846 10.616C15.8572 10.889 16.0103 11.2589 16.0103 11.6446C16.0103 12.0304 15.8572 12.4003 15.5846 12.6733L10.0961 18.1637C9.82306 18.4366 9.45276 18.5899 9.06669 18.5898C8.68061 18.5897 8.31038 18.4363 8.03745 18.1632C7.76452 17.8901 7.61124 17.5198 7.61133 17.1338C7.61142 16.7477 7.76487 16.3775 8.03794 16.1045L12.4978 11.6446L8.03794 7.18475C7.77266 6.91035 7.62577 6.54274 7.6289 6.16109C7.63204 5.77944 7.78495 5.41429 8.0547 5.14428C8.32445 4.87428 8.68945 4.72102 9.0711 4.71753C9.45275 4.71403 9.8205 4.86058 10.0952 5.1256L15.5856 10.6151L15.5846 10.616Z" fill="white"/>
</svg>
