<svg width="20" height="20" viewBox="0 0 20 20" fill="none" xmlns="http://www.w3.org/2000/svg">
<path fill-rule="evenodd" clip-rule="evenodd" d="M17.9547 4.25916C18.189 4.49357 18.3207 4.81146 18.3207 5.14291C18.3207 5.47437 18.189 5.79225 17.9547 6.02666L8.58553 15.3958C8.46171 15.5197 8.31472 15.6179 8.15293 15.6849C7.99114 15.752 7.81773 15.7865 7.64261 15.7865C7.46749 15.7865 7.29409 15.752 7.1323 15.6849C6.97051 15.6179 6.82351 15.5197 6.6997 15.3958L2.0447 10.7417C1.92531 10.6264 1.83008 10.4884 1.76457 10.3359C1.69906 10.1834 1.66458 10.0194 1.66313 9.85341C1.66169 9.68744 1.69332 9.52284 1.75617 9.36922C1.81902 9.2156 1.91184 9.07603 2.0292 8.95867C2.14657 8.8413 2.28613 8.74849 2.43975 8.68563C2.59337 8.62278 2.75797 8.59116 2.92395 8.5926C3.08992 8.59404 3.25395 8.62852 3.40645 8.69403C3.55896 8.75955 3.69689 8.85477 3.8122 8.97416L7.6422 12.8042L16.1864 4.25916C16.3024 4.143 16.4403 4.05086 16.592 3.98799C16.7437 3.92512 16.9063 3.89276 17.0705 3.89276C17.2348 3.89276 17.3974 3.92512 17.5491 3.98799C17.7008 4.05086 17.8386 4.143 17.9547 4.25916Z" fill="black"/>
</svg>
