<svg width="39" height="38" viewBox="0 0 39 38" fill="none" xmlns="http://www.w3.org/2000/svg">
<path d="M29.2501 6.33333H9.7501C7.95448 6.33333 6.45785 7.77417 6.90148 9.46833C7.37396 11.2636 8.24402 12.9363 9.45058 14.369C10.6571 15.8018 12.171 16.9598 13.8857 17.7618C15.2231 18.3857 16.2501 19.6112 16.2501 21.0552V30.6882C16.2502 30.958 16.3211 31.2232 16.4561 31.4588C16.591 31.6944 16.7854 31.8925 17.021 32.0343C17.2565 32.1761 17.5254 32.2569 17.802 32.2691C18.0786 32.2812 18.3538 32.2243 18.6015 32.1037L21.8515 30.5203C22.1214 30.3889 22.3484 30.1869 22.5071 29.9369C22.6658 29.6869 22.7499 29.3988 22.7501 29.1048V21.0552C22.7501 19.6112 23.7771 18.3857 25.1129 17.7618C26.8282 16.9602 28.3427 15.8023 29.5498 14.3695C30.757 12.9368 31.6275 11.2639 32.1004 9.46833C32.5407 7.77417 31.0425 6.33333 29.2501 6.33333Z" stroke="white" stroke-width="4"/>
</svg>
