<svg width="244" height="41" viewBox="0 0 244 41" fill="none" xmlns="http://www.w3.org/2000/svg">
<path fill-rule="evenodd" clip-rule="evenodd" d="M130.95 11.0658H132.744V12.9101H134.537V25.8202H132.744V27.6645H130.95V29.5088H121.982V36.886H120.188V38.7303H118.395V40.5746H113.014V38.7303H111.22V33.1974H113.014V35.0417H114.808V33.1974H113.014V31.3531H114.808V12.9101H116.601V11.0658H118.395V9.22151H130.95V11.0658ZM123.776 25.8202H125.569V23.9759H123.776V25.8202ZM123.776 22.1316H127.363V16.5987H123.776V22.1316ZM123.776 14.7544H125.569V12.9101H123.776V14.7544Z" fill="white"/>
<path fill-rule="evenodd" clip-rule="evenodd" d="M148.887 11.0658H150.68V12.9101H152.474V25.8202H154.267V31.3531H138.125V29.5088H136.331V22.1316H138.125V20.2873H145.299V16.5987H143.506V18.443H138.125V16.5987H136.331V11.0658H138.125V9.22151H148.887V11.0658ZM141.712 27.6645H145.299V23.9759H141.712V27.6645Z" fill="white"/>
<path d="M168.616 11.0658H170.41V18.443H165.029V16.5987H163.236V31.3531H156.061V11.0658H157.855V9.22151H168.616V11.0658Z" fill="white"/>
<path fill-rule="evenodd" clip-rule="evenodd" d="M184.759 11.0658H186.553V29.5088H184.759V31.3531H173.997V29.5088H172.204V11.0658H173.997V9.22151H184.759V11.0658ZM177.585 25.8202H181.172V14.7544H177.585V25.8202Z" fill="white"/>
<path fill-rule="evenodd" clip-rule="evenodd" d="M209.87 1.8443H211.663V7.37721H209.87V5.5329H208.076V7.37721H209.87V9.22151H208.076V27.6645H206.283V29.5088H204.489V31.3531H191.934V29.5088H190.14V27.6645H188.346V14.7544H190.14V12.9101H191.934V11.0658H200.902V3.6886H202.695V1.8443H204.489V0H209.87V1.8443ZM195.521 25.8202H199.108V16.5987H195.521V25.8202Z" fill="white"/>
<path fill-rule="evenodd" clip-rule="evenodd" d="M224.219 11.0658H226.012V20.2873H215.251V25.8202H218.838V22.1316H226.012V29.5088H224.219V31.3531H211.663V29.5088H209.87V11.0658H211.663V9.22151H224.219V11.0658ZM215.251 16.5987H218.838V12.9101H215.251V16.5987Z" fill="white"/>
<path fill-rule="evenodd" clip-rule="evenodd" d="M242.155 11.0658H243.949V20.2873H233.187V25.8202H236.774V22.1316H243.949V29.5088H242.155V31.3531H229.6V29.5088H227.806V11.0658H229.6V9.22151H242.155V11.0658ZM233.187 16.5987H236.774V12.9101H233.187V16.5987Z" fill="white"/>
<path d="M12.1689 30.919C4.68552 30.919 0 25.9638 0 18.076C0 10.2893 4.95519 5.16551 12.4048 5.16551C18.641 5.16551 23.1242 8.73865 23.8995 14.3343H18.1353C17.3937 11.8399 15.2701 10.4241 12.27 10.4241C8.22495 10.4241 5.7642 13.2893 5.7642 18.0423C5.7642 22.7278 8.25865 25.6605 12.27 25.6605C15.3375 25.6605 17.596 24.1436 18.2702 21.6828H23.9332C23.0568 27.2448 18.405 30.919 12.1689 30.919Z" fill="white"/>
<path d="M24.1913 22.0536C24.1913 16.7276 28.1015 13.1545 33.495 13.1545C38.8547 13.1545 42.7649 16.7276 42.7649 22.0536C42.7649 27.3796 38.8547 30.919 33.495 30.919C28.1015 30.919 24.1913 27.3796 24.1913 22.0536ZM29.4162 22.0199C29.4162 24.5818 31.0679 26.2672 33.495 26.2672C35.8883 26.2672 37.54 24.5818 37.54 22.0199C37.54 19.4918 35.8883 17.8063 33.495 17.8063C31.0679 17.8063 29.4162 19.4918 29.4162 22.0199Z" fill="white"/>
<path d="M49.1221 30.5145H43.931V5.0981H49.1221V30.5145Z" fill="white"/>
<path d="M56.3643 30.5145H51.1731V5.0981H56.3643V30.5145Z" fill="white"/>
<path d="M66.2357 30.9527C61.1456 30.9527 57.5051 27.2448 57.5051 22.0536C57.5051 16.795 61.0445 13.1208 66.1345 13.1208C71.4268 13.1208 74.7303 16.5928 74.7303 22.0873V23.402L62.494 23.4694C62.7974 25.6942 64.0446 26.7391 66.3368 26.7391C68.2919 26.7391 69.674 26.0313 70.0448 24.8177H74.7977C74.191 28.5594 70.8538 30.9527 66.2357 30.9527ZM66.1683 17.3344C64.112 17.3344 62.9659 18.2445 62.5614 20.2671H69.5728C69.5728 18.4805 68.2582 17.3344 66.1683 17.3344Z" fill="white"/>
<path d="M75.0508 22.0199C75.0508 16.8288 78.6239 13.1208 83.6802 13.1208C88.6691 13.1208 91.9726 15.8512 92.3097 20.2671H87.0848C86.714 18.5816 85.6691 17.7726 83.8825 17.7726C81.6914 17.7726 80.2757 19.4243 80.2757 22.0199C80.2757 24.7166 81.5903 26.3009 83.8151 26.3009C85.6354 26.3009 86.7477 25.4582 87.0848 23.8065H92.3097C91.9726 28.0538 88.5343 30.9527 83.8151 30.9527C78.4891 30.9527 75.0508 27.4133 75.0508 22.0199Z" fill="white"/>
<path d="M100.118 30.5145H94.9271V17.9749H91.7248V13.6601H94.9271V8.43527H100.118V13.6601H103.321V17.9749H100.118V30.5145Z" fill="white"/>
<path d="M106.026 30.9527C104.307 30.9527 102.925 29.5707 102.925 27.919C102.925 26.2335 104.307 24.8514 106.026 24.8514C107.677 24.8514 109.127 26.2335 109.127 27.919C109.127 29.5707 107.677 30.9527 106.026 30.9527Z" fill="white"/>
</svg>
